<svg width="40" height="40" viewBox="0 0 40 40" fill="none" xmlns="http://www.w3.org/2000/svg">
<path fill-rule="evenodd" clip-rule="evenodd" d="M11.0408 4.29196C12.5846 4.1687 14.0501 3.56147 15.2288 2.55676C16.5599 1.42298 18.2514 0.800293 20 0.800293C21.7485 0.800293 23.44 1.42298 24.7712 2.55676C25.9498 3.56147 27.4153 4.1687 28.9592 4.29196C30.7026 4.43129 32.3394 5.18707 33.5761 6.42379C34.8128 7.66052 35.5686 9.29732 35.708 11.0408C35.8304 12.584 36.4376 14.0504 37.4432 15.2288C38.5769 16.5599 39.1996 18.2514 39.1996 20C39.1996 21.7485 38.5769 23.44 37.4432 24.7712C36.4384 25.9498 35.8312 27.4153 35.708 28.9592C35.5686 30.7026 34.8128 32.3394 33.5761 33.5761C32.3394 34.8128 30.7026 35.5686 28.9592 35.708C27.4153 35.8312 25.9498 36.4384 24.7712 37.4432C23.44 38.5769 21.7485 39.1996 20 39.1996C18.2514 39.1996 16.5599 38.5769 15.2288 37.4432C14.0501 36.4384 12.5846 35.8312 11.0408 35.708C9.29732 35.5686 7.66052 34.8128 6.42379 33.5761C5.18707 32.3394 4.43129 30.7026 4.29196 28.9592C4.1687 27.4153 3.56147 25.9498 2.55676 24.7712C1.42298 23.44 0.800293 21.7485 0.800293 20C0.800293 18.2514 1.42298 16.5599 2.55676 15.2288C3.56147 14.0501 4.1687 12.5846 4.29196 11.0408C4.43129 9.29732 5.18707 7.66052 6.42379 6.42379C7.66052 5.18707 9.29732 4.43129 11.0408 4.29196ZM28.8968 16.8968C29.3339 16.4441 29.5758 15.8379 29.5704 15.2086C29.5649 14.5793 29.3125 13.9774 28.8675 13.5324C28.4225 13.0874 27.8206 12.835 27.1913 12.8295C26.562 12.8241 25.9558 13.066 25.5032 13.5032L17.6 21.4064L14.4968 18.3032C14.0441 17.866 13.4379 17.6241 12.8086 17.6295C12.1793 17.635 11.5774 17.8874 11.1324 18.3324C10.6874 18.7774 10.435 19.3793 10.4295 20.0086C10.4241 20.6379 10.666 21.2441 11.1032 21.6968L15.9032 26.4968C16.3532 26.9467 16.9636 27.1994 17.6 27.1994C18.2364 27.1994 18.8467 26.9467 19.2968 26.4968L28.8968 16.8968Z" fill="#8DFBC9"/>
</svg>
