<svg width="1500" height="1500" viewBox="0 0 1500 1500" fill="none" xmlns="http://www.w3.org/2000/svg" xmlns:xlink="http://www.w3.org/1999/xlink">
<g clip-path="url(#clip0_8601_29280)">
<rect width="1500" height="1500" rx="41.6667" fill="#22212A"/>
<rect opacity="0.6" x="-893" y="-450" width="3422" height="2728" fill="url(#pattern0)" fill-opacity="0.5"/>
<text x="75" y="1350" font-family="'Andale Mono', monospace" font-size="40px" fill="white">ID 6340</text>
<text x="75" y="1425" font-family="'Andale Mono', monospace" font-size="40px" fill="white">14738449</text>
<g filter="url(#filter0_iii_8601_29280)">
<path fill-rule="evenodd" clip-rule="evenodd" d="M1283.8 450.809C1313.93 498.455 1299.74 561.508 1252.09 591.642L853.987 843.412V1240.86C853.987 1290.5 813.745 1330.74 764.105 1330.74H739.713C690.073 1330.74 649.832 1290.5 649.832 1240.86V844.971L301.153 635.664C252.818 606.649 237.155 543.943 266.171 495.608V495.608C295.186 447.272 357.891 431.61 406.227 460.625L750.513 667.295L1142.97 419.097C1190.62 388.964 1253.67 403.162 1283.8 450.809V450.809Z" fill="url(#paint0_linear_8601_29280)" fill-opacity="0.9"/>
</g>
<g filter="url(#filter1_iii_8601_29280)">
<path fill-rule="evenodd" clip-rule="evenodd" d="M758.119 159C807.759 159 848 199.241 848 248.881L848 766C848 809.078 813.078 844 770 844H731C687.922 844 653 809.078 653 766L653 248.881C653 199.241 693.241 159 742.882 159L758.119 159Z" fill="url(#paint1_linear_8601_29280)"/>
</g>
<g filter="url(#filter2_iiii_8601_29280)">
<path fill-rule="evenodd" clip-rule="evenodd" d="M785.677 770.717C813.395 724.734 873.141 709.926 919.125 737.644L1265.66 946.53C1308.18 972.156 1321.87 1027.39 1296.24 1069.91L1288.67 1082.47C1263.04 1124.99 1207.8 1138.68 1165.29 1113.05L818.75 904.165C772.766 876.447 757.959 816.7 785.677 770.717V770.717Z" fill="url(#paint2_linear_8601_29280)"/>
</g>
<g filter="url(#filter3_iii_8601_29280)">
<path fill-rule="evenodd" clip-rule="evenodd" d="M721.874 768.414C750.312 813.956 736.447 873.928 690.905 902.366L354.629 1112.35C309.088 1140.79 249.116 1126.93 220.677 1081.38V1081.38C192.239 1035.84 206.104 975.871 251.646 947.432L587.922 737.446C633.463 709.008 693.435 722.873 721.874 768.414V768.414Z" fill="white"/>
<path fill-rule="evenodd" clip-rule="evenodd" d="M721.874 768.414C750.312 813.956 736.447 873.928 690.905 902.366L354.629 1112.35C309.088 1140.79 249.116 1126.93 220.677 1081.38V1081.38C192.239 1035.84 206.104 975.871 251.646 947.432L587.922 737.446C633.463 709.008 693.435 722.873 721.874 768.414V768.414Z" fill="url(#paint3_linear_8601_29280)"/>
</g>
<path d="M1311 1360V1417.11C1311 1428.1 1330.25 1437 1354 1437C1377.75 1437 1397 1428.1 1397 1417.11V1360" stroke="white" stroke-width="4" stroke-linecap="round" stroke-linejoin="round"/>
<path d="M1413 1338.31C1413 1341.44 1411.59 1344.56 1408.75 1347.57C1405.9 1350.59 1401.68 1353.4 1396.32 1355.8C1385.59 1360.6 1370.63 1363.63 1354 1363.63V1367.63C1371.06 1367.63 1386.6 1364.53 1397.95 1359.45C1403.62 1356.91 1408.34 1353.84 1411.66 1350.32C1414.99 1346.79 1417 1342.73 1417 1338.31H1413ZM1354 1363.63C1337.37 1363.63 1322.41 1360.6 1311.68 1355.8C1306.32 1353.4 1302.1 1350.59 1299.25 1347.57C1296.41 1344.56 1295 1341.44 1295 1338.31H1291C1291 1342.73 1293.01 1346.79 1296.34 1350.32C1299.66 1353.84 1304.38 1356.91 1310.05 1359.45C1321.4 1364.53 1336.94 1367.63 1354 1367.63V1363.63ZM1295 1338.31C1295 1335.19 1296.41 1332.06 1299.25 1329.06C1302.1 1326.04 1306.32 1323.23 1311.68 1320.83C1322.41 1316.02 1337.37 1313 1354 1313V1309C1336.94 1309 1321.4 1312.09 1310.05 1317.17C1304.38 1319.71 1299.66 1322.79 1296.34 1326.31C1293.01 1329.84 1291 1333.9 1291 1338.31H1295ZM1354 1313C1370.63 1313 1385.59 1316.02 1396.32 1320.83C1401.68 1323.23 1405.9 1326.04 1408.75 1329.06C1411.59 1332.06 1413 1335.19 1413 1338.31H1417C1417 1333.9 1414.99 1329.84 1411.66 1326.31C1408.34 1322.79 1403.62 1319.71 1397.95 1317.17C1386.6 1312.09 1371.06 1309 1354 1309V1313Z" fill="white"/>
<path d="M1289 1272C1293.34 1305.48 1316.16 1335.3 1352 1342C1347.66 1315.22 1329.19 1272 1289 1272Z" stroke="white" stroke-width="4" stroke-linecap="round" stroke-linejoin="round"/>
<path d="M1418 1272C1413.66 1305.48 1390.84 1335.3 1355 1342C1359.34 1315.22 1377.81 1272 1418 1272Z" stroke="white" stroke-width="4" stroke-linecap="round" stroke-linejoin="round"/>
</g>
<defs>
<pattern id="pattern0" patternContentUnits="objectBoundingBox" width="1" height="1">
<use xlink:href="#image0_8601_29280" transform="scale(0.000751315 0.000943396)"/>
</pattern>
<filter id="filter0_iii_8601_29280" x="251.598" y="401.279" width="1073.02" height="1016.58" filterUnits="userSpaceOnUse" color-interpolation-filters="sRGB">
<feFlood flood-opacity="0" result="BackgroundImageFix"/>
<feBlend mode="normal" in="SourceGraphic" in2="BackgroundImageFix" result="shape"/>
<feColorMatrix in="SourceAlpha" type="matrix" values="0 0 0 0 0 0 0 0 0 0 0 0 0 0 0 0 0 0 127 0" result="hardAlpha"/>
<feOffset dy="92.9249"/>
<feGaussianBlur stdDeviation="43.5585"/>
<feComposite in2="hardAlpha" operator="arithmetic" k2="-1" k3="1"/>
<feColorMatrix type="matrix" values="0 0 0 0 0.887683 0 0 0 0 0.873897 0 0 0 0 0.873897 0 0 0 1 0"/>
<feBlend mode="normal" in2="shape" result="effect1_innerShadow_8601_29280"/>
<feColorMatrix in="SourceAlpha" type="matrix" values="0 0 0 0 0 0 0 0 0 0 0 0 0 0 0 0 0 0 127 0" result="hardAlpha"/>
<feOffset dy="114.92"/>
<feGaussianBlur stdDeviation="23.5147"/>
<feComposite in2="hardAlpha" operator="arithmetic" k2="-1" k3="1"/>
<feColorMatrix type="matrix" values="0 0 0 0 1 0 0 0 0 1 0 0 0 0 1 0 0 0 0.88 0"/>
<feBlend mode="normal" in2="effect1_innerShadow_8601_29280" result="effect2_innerShadow_8601_29280"/>
<feColorMatrix in="SourceAlpha" type="matrix" values="0 0 0 0 0 0 0 0 0 0 0 0 0 0 0 0 0 0 127 0" result="hardAlpha"/>
<feOffset dx="25" dy="-2"/>
<feGaussianBlur stdDeviation="35"/>
<feComposite in2="hardAlpha" operator="arithmetic" k2="-1" k3="1"/>
<feColorMatrix type="matrix" values="0 0 0 0 0.26611 0 0 0 0 0.26611 0 0 0 0 0.26611 0 0 0 0.4 0"/>
<feBlend mode="normal" in2="effect2_innerShadow_8601_29280" result="effect3_innerShadow_8601_29280"/>
</filter>
<filter id="filter1_iii_8601_29280" x="618.176" y="111.971" width="229.824" height="819.146" filterUnits="userSpaceOnUse" color-interpolation-filters="sRGB">
<feFlood flood-opacity="0" result="BackgroundImageFix"/>
<feBlend mode="normal" in="SourceGraphic" in2="BackgroundImageFix" result="shape"/>
<feColorMatrix in="SourceAlpha" type="matrix" values="0 0 0 0 0 0 0 0 0 0 0 0 0 0 0 0 0 0 127 0" result="hardAlpha"/>
<feOffset dy="92.9249"/>
<feGaussianBlur stdDeviation="43.5585"/>
<feComposite in2="hardAlpha" operator="arithmetic" k2="-1" k3="1"/>
<feColorMatrix type="matrix" values="0 0 0 0 0.887683 0 0 0 0 0.873897 0 0 0 0 0.873897 0 0 0 1 0"/>
<feBlend mode="normal" in2="shape" result="effect1_innerShadow_8601_29280"/>
<feColorMatrix in="SourceAlpha" type="matrix" values="0 0 0 0 0 0 0 0 0 0 0 0 0 0 0 0 0 0 127 0" result="hardAlpha"/>
<feOffset dy="-48.7541"/>
<feGaussianBlur stdDeviation="23.5147"/>
<feComposite in2="hardAlpha" operator="arithmetic" k2="-1" k3="1"/>
<feColorMatrix type="matrix" values="0 0 0 0 0.854902 0 0 0 0 0.854902 0 0 0 0 0.854902 0 0 0 1 0"/>
<feBlend mode="normal" in2="effect1_innerShadow_8601_29280" result="effect2_innerShadow_8601_29280"/>
<feColorMatrix in="SourceAlpha" type="matrix" values="0 0 0 0 0 0 0 0 0 0 0 0 0 0 0 0 0 0 127 0" result="hardAlpha"/>
<feOffset dx="-103.364" dy="-269.644"/>
<feGaussianBlur stdDeviation="17.4122"/>
<feComposite in2="hardAlpha" operator="arithmetic" k2="-1" k3="1"/>
<feColorMatrix type="matrix" values="0 0 0 0 1 0 0 0 0 1 0 0 0 0 1 0 0 0 0.3 0"/>
<feBlend mode="normal" in2="effect2_innerShadow_8601_29280" result="effect3_innerShadow_8601_29280"/>
</filter>
<filter id="filter2_iiii_8601_29280" x="725.244" y="677.211" width="583.916" height="535.873" filterUnits="userSpaceOnUse" color-interpolation-filters="sRGB">
<feFlood flood-opacity="0" result="BackgroundImageFix"/>
<feBlend mode="normal" in="SourceGraphic" in2="BackgroundImageFix" result="shape"/>
<feColorMatrix in="SourceAlpha" type="matrix" values="0 0 0 0 0 0 0 0 0 0 0 0 0 0 0 0 0 0 127 0" result="hardAlpha"/>
<feOffset dy="92.9249"/>
<feGaussianBlur stdDeviation="43.5585"/>
<feComposite in2="hardAlpha" operator="arithmetic" k2="-1" k3="1"/>
<feColorMatrix type="matrix" values="0 0 0 0 0.887683 0 0 0 0 0.873897 0 0 0 0 0.873897 0 0 0 1 0"/>
<feBlend mode="normal" in2="shape" result="effect1_innerShadow_8601_29280"/>
<feColorMatrix in="SourceAlpha" type="matrix" values="0 0 0 0 0 0 0 0 0 0 0 0 0 0 0 0 0 0 127 0" result="hardAlpha"/>
<feOffset dy="11.6156"/>
<feGaussianBlur stdDeviation="23.5147"/>
<feComposite in2="hardAlpha" operator="arithmetic" k2="-1" k3="1"/>
<feColorMatrix type="matrix" values="0 0 0 0 1 0 0 0 0 1 0 0 0 0 1 0 0 0 0.88 0"/>
<feBlend mode="normal" in2="effect1_innerShadow_8601_29280" result="effect2_innerShadow_8601_29280"/>
<feColorMatrix in="SourceAlpha" type="matrix" values="0 0 0 0 0 0 0 0 0 0 0 0 0 0 0 0 0 0 127 0" result="hardAlpha"/>
<feOffset dy="11.6156"/>
<feGaussianBlur stdDeviation="2.9039"/>
<feComposite in2="hardAlpha" operator="arithmetic" k2="-1" k3="1"/>
<feColorMatrix type="matrix" values="0 0 0 0 1 0 0 0 0 1 0 0 0 0 1 0 0 0 0.4 0"/>
<feBlend mode="normal" in2="effect2_innerShadow_8601_29280" result="effect3_innerShadow_8601_29280"/>
<feColorMatrix in="SourceAlpha" type="matrix" values="0 0 0 0 0 0 0 0 0 0 0 0 0 0 0 0 0 0 127 0" result="hardAlpha"/>
<feOffset dx="-87.117" dy="-69.6936"/>
<feGaussianBlur stdDeviation="23.2312"/>
<feComposite in2="hardAlpha" operator="arithmetic" k2="-1" k3="1"/>
<feColorMatrix type="matrix" values="0 0 0 0 0.26611 0 0 0 0 0.26611 0 0 0 0 0.26611 0 0 0 0.4 0"/>
<feBlend mode="normal" in2="effect3_innerShadow_8601_29280" result="effect4_innerShadow_8601_29280"/>
</filter>
<filter id="filter3_iii_8601_29280" x="159.446" y="676.214" width="577.198" height="462.524" filterUnits="userSpaceOnUse" color-interpolation-filters="sRGB">
<feFlood flood-opacity="0" result="BackgroundImageFix"/>
<feBlend mode="normal" in="SourceGraphic" in2="BackgroundImageFix" result="shape"/>
<feColorMatrix in="SourceAlpha" type="matrix" values="0 0 0 0 0 0 0 0 0 0 0 0 0 0 0 0 0 0 127 0" result="hardAlpha"/>
<feOffset dy="11.6156"/>
<feGaussianBlur stdDeviation="23.5147"/>
<feComposite in2="hardAlpha" operator="arithmetic" k2="-1" k3="1"/>
<feColorMatrix type="matrix" values="0 0 0 0 1 0 0 0 0 1 0 0 0 0 1 0 0 0 0.88 0"/>
<feBlend mode="normal" in2="shape" result="effect1_innerShadow_8601_29280"/>
<feColorMatrix in="SourceAlpha" type="matrix" values="0 0 0 0 0 0 0 0 0 0 0 0 0 0 0 0 0 0 127 0" result="hardAlpha"/>
<feOffset dy="11.6156"/>
<feGaussianBlur stdDeviation="2.9039"/>
<feComposite in2="hardAlpha" operator="arithmetic" k2="-1" k3="1"/>
<feColorMatrix type="matrix" values="0 0 0 0 1 0 0 0 0 1 0 0 0 0 1 0 0 0 0.4 0"/>
<feBlend mode="normal" in2="effect1_innerShadow_8601_29280" result="effect2_innerShadow_8601_29280"/>
<feColorMatrix in="SourceAlpha" type="matrix" values="0 0 0 0 0 0 0 0 0 0 0 0 0 0 0 0 0 0 127 0" result="hardAlpha"/>
<feOffset dx="-87.117" dy="-69.6936"/>
<feGaussianBlur stdDeviation="23.2312"/>
<feComposite in2="hardAlpha" operator="arithmetic" k2="-1" k3="1"/>
<feColorMatrix type="matrix" values="0 0 0 0 0.26611 0 0 0 0 0.26611 0 0 0 0 0.26611 0 0 0 0.2 0"/>
<feBlend mode="normal" in2="effect2_innerShadow_8601_29280" result="effect3_innerShadow_8601_29280"/>
</filter>
<linearGradient id="paint0_linear_8601_29280" x1="181.643" y1="338.157" x2="775.998" y2="1330.74" gradientUnits="userSpaceOnUse">
<stop offset="0.537576" stop-color="white"/>
<stop offset="0.780523" stop-color="#8F8F8F"/>
</linearGradient>
<linearGradient id="paint1_linear_8601_29280" x1="750.5" y1="159" x2="750.5" y2="976" gradientUnits="userSpaceOnUse">
<stop offset="0.662179" stop-color="white"/>
<stop offset="0.767442" stop-color="white" stop-opacity="0"/>
</linearGradient>
<linearGradient id="paint2_linear_8601_29280" x1="712" y1="558" x2="1247" y2="1198" gradientUnits="userSpaceOnUse">
<stop offset="0.115985" stop-color="white"/>
<stop offset="0.383753" stop-color="white"/>
<stop offset="0.842473" stop-color="#8F8F8F"/>
</linearGradient>
<linearGradient id="paint3_linear_8601_29280" x1="133.034" y1="1107.67" x2="809.661" y2="497.146" gradientUnits="userSpaceOnUse">
<stop offset="0.0923222" stop-color="#8F8F8F"/>
<stop offset="0.547118" stop-color="white"/>
</linearGradient>
<clipPath id="clip0_8601_29280">
<rect width="1500" height="1500" rx="41.6667" fill="white"/>
</clipPath>
</defs>
</svg>
