<svg width="1500" height="1500" viewBox="0 0 1500 1500" fill="none" xmlns="http://www.w3.org/2000/svg" xmlns:xlink="http://www.w3.org/1999/xlink">
<g clip-path="url(#clip0_8601_30257)">
<rect width="1500" height="1500" rx="41.6667" fill="#1A1A21"/>
<rect opacity="0.7" x="2302.8" y="4979.8" width="5714.96" height="5494.64" transform="rotate(-135 2302.8 4979.8)" fill="url(#pattern0)" fill-opacity="0.5"/>
<text x="75" y="1350" font-family="'Andale Mono', monospace" font-size="40px" fill="white">ID 5003</text>
<text x="75" y="1425" font-family="'Andale Mono', monospace" font-size="40px" fill="white">14738443</text>
<g filter="url(#filter0_ii_8601_30257)">
<path d="M254 848.259L737.407 1249.66L1249.59 848.259L737.407 244L254 848.259Z" stroke="black" stroke-width="161.136" stroke-linecap="round" stroke-linejoin="round"/>
</g>
<g filter="url(#filter1_diiiii_8601_30257)">
<path fill-rule="evenodd" clip-rule="evenodd" d="M736.266 163.508C760.318 163.167 783.262 173.6 798.816 191.949L1311 796.208C1325.15 812.903 1331.89 834.64 1329.67 856.414C1327.46 878.187 1316.47 898.119 1299.24 911.619L787.063 1313.02C757.234 1336.4 715.138 1335.8 685.981 1311.59L202.574 910.191C168.81 882.155 163.725 832.24 191.141 797.971L674.547 193.712C689.574 174.929 712.213 163.849 736.266 163.508ZM872.679 528.088C803.513 446.488 677.072 448.282 610.249 531.811L380.961 818.421C372.788 828.638 374.304 843.519 384.37 851.878L619.697 1047.28C689.24 1105.03 789.641 1106.45 860.787 1050.69L1114.46 851.881C1125.18 843.482 1126.77 827.86 1117.97 817.473L872.679 528.088Z" fill="#585858"/>
<path fill-rule="evenodd" clip-rule="evenodd" d="M736.266 163.508C760.318 163.167 783.262 173.6 798.816 191.949L1311 796.208C1325.15 812.903 1331.89 834.64 1329.67 856.414C1327.46 878.187 1316.47 898.119 1299.24 911.619L787.063 1313.02C757.234 1336.4 715.138 1335.8 685.981 1311.59L202.574 910.191C168.81 882.155 163.725 832.24 191.141 797.971L674.547 193.712C689.574 174.929 712.213 163.849 736.266 163.508ZM872.679 528.088C803.513 446.488 677.072 448.282 610.249 531.811L380.961 818.421C372.788 828.638 374.304 843.519 384.37 851.878L619.697 1047.28C689.24 1105.03 789.641 1106.45 860.787 1050.69L1114.46 851.881C1125.18 843.482 1126.77 827.86 1117.97 817.473L872.679 528.088Z" fill="url(#paint0_linear_8601_30257)"/>
</g>
<g filter="url(#filter2_diiiii_8601_30257)">
<path fill-rule="evenodd" clip-rule="evenodd" d="M737.408 1327.71C687.15 1327.71 646.408 1286.97 646.408 1236.71L646.408 256.949C646.408 206.691 687.15 165.949 737.408 165.949C787.666 165.949 828.408 206.691 828.408 256.949L828.408 1236.71C828.408 1286.97 787.666 1327.71 737.408 1327.71Z" fill="url(#paint1_linear_8601_30257)"/>
</g>
<path d="M1311 1360V1417.11C1311 1428.1 1330.25 1437 1354 1437C1377.75 1437 1397 1428.1 1397 1417.11V1360" stroke="white" stroke-width="4" stroke-linecap="round" stroke-linejoin="round"/>
<path d="M1413 1338.31C1413 1341.44 1411.59 1344.56 1408.75 1347.57C1405.9 1350.59 1401.68 1353.4 1396.32 1355.8C1385.59 1360.6 1370.63 1363.63 1354 1363.63V1367.63C1371.06 1367.63 1386.6 1364.53 1397.95 1359.45C1403.62 1356.91 1408.34 1353.84 1411.66 1350.32C1414.99 1346.79 1417 1342.73 1417 1338.31H1413ZM1354 1363.63C1337.37 1363.63 1322.41 1360.6 1311.68 1355.8C1306.32 1353.4 1302.1 1350.59 1299.25 1347.57C1296.41 1344.56 1295 1341.44 1295 1338.31H1291C1291 1342.73 1293.01 1346.79 1296.34 1350.32C1299.66 1353.84 1304.38 1356.91 1310.05 1359.45C1321.4 1364.53 1336.94 1367.63 1354 1367.63V1363.63ZM1295 1338.31C1295 1335.19 1296.41 1332.06 1299.25 1329.06C1302.1 1326.04 1306.32 1323.23 1311.68 1320.83C1322.41 1316.02 1337.37 1313 1354 1313V1309C1336.94 1309 1321.4 1312.09 1310.05 1317.17C1304.38 1319.71 1299.66 1322.79 1296.34 1326.31C1293.01 1329.84 1291 1333.9 1291 1338.31H1295ZM1354 1313C1370.63 1313 1385.59 1316.02 1396.32 1320.83C1401.68 1323.23 1405.9 1326.04 1408.75 1329.06C1411.59 1332.06 1413 1335.19 1413 1338.31H1417C1417 1333.9 1414.99 1329.84 1411.66 1326.31C1408.34 1322.79 1403.62 1319.71 1397.95 1317.17C1386.6 1312.09 1371.06 1309 1354 1309V1313Z" fill="white"/>
<path d="M1289 1272C1293.34 1305.48 1316.16 1335.3 1352 1342C1347.66 1315.22 1329.19 1272 1289 1272Z" stroke="white" stroke-width="4" stroke-linecap="round" stroke-linejoin="round"/>
<path d="M1418 1272C1413.66 1305.48 1390.84 1335.3 1355 1342C1359.34 1315.22 1377.81 1272 1418 1272Z" stroke="white" stroke-width="4" stroke-linecap="round" stroke-linejoin="round"/>
</g>
<defs>
<pattern id="pattern0" patternContentUnits="objectBoundingBox" width="1" height="1">
<use xlink:href="#image0_8601_30257" transform="scale(0.000819001)"/>
</pattern>
<filter id="filter0_ii_8601_30257" x="-28.0056" y="163.432" width="1358.16" height="1262.95" filterUnits="userSpaceOnUse" color-interpolation-filters="sRGB">
<feFlood flood-opacity="0" result="BackgroundImageFix"/>
<feBlend mode="normal" in="SourceGraphic" in2="BackgroundImageFix" result="shape"/>
<feColorMatrix in="SourceAlpha" type="matrix" values="0 0 0 0 0 0 0 0 0 0 0 0 0 0 0 0 0 0 127 0" result="hardAlpha"/>
<feOffset dy="102.564"/>
<feGaussianBlur stdDeviation="48.077"/>
<feComposite in2="hardAlpha" operator="arithmetic" k2="-1" k3="1"/>
<feColorMatrix type="matrix" values="0 0 0 0 0.563142 0 0 0 0 0.765321 0 0 0 0 0.829167 0 0 0 0.4 0"/>
<feBlend mode="normal" in2="shape" result="effect1_innerShadow_8601_30257"/>
<feColorMatrix in="SourceAlpha" type="matrix" values="0 0 0 0 0 0 0 0 0 0 0 0 0 0 0 0 0 0 127 0" result="hardAlpha"/>
<feOffset dx="-201.435" dy="40.2871"/>
<feGaussianBlur stdDeviation="125.897"/>
<feComposite in2="hardAlpha" operator="arithmetic" k2="-1" k3="1"/>
<feColorMatrix type="matrix" values="0 0 0 0 0.70435 0 0 0 0 0.70435 0 0 0 0 0.70435 0 0 0 1 0"/>
<feBlend mode="normal" in2="effect1_innerShadow_8601_30257" result="effect2_innerShadow_8601_30257"/>
</filter>
<filter id="filter1_diiiii_8601_30257" x="-78.2764" y="84.5" width="1494.37" height="1406.66" filterUnits="userSpaceOnUse" color-interpolation-filters="sRGB">
<feFlood flood-opacity="0" result="BackgroundImageFix"/>
<feColorMatrix in="SourceAlpha" type="matrix" values="0 0 0 0 0 0 0 0 0 0 0 0 0 0 0 0 0 0 127 0" result="hardAlpha"/>
<feOffset dx="-34" dy="41"/>
<feGaussianBlur stdDeviation="60"/>
<feComposite in2="hardAlpha" operator="out"/>
<feColorMatrix type="matrix" values="0 0 0 0 0 0 0 0 0 0 0 0 0 0 0 0 0 0 0.3 0"/>
<feBlend mode="normal" in2="BackgroundImageFix" result="effect1_dropShadow_8601_30257"/>
<feBlend mode="normal" in="SourceGraphic" in2="effect1_dropShadow_8601_30257" result="shape"/>
<feColorMatrix in="SourceAlpha" type="matrix" values="0 0 0 0 0 0 0 0 0 0 0 0 0 0 0 0 0 0 127 0" result="hardAlpha"/>
<feOffset dy="102.564"/>
<feGaussianBlur stdDeviation="48.077"/>
<feComposite in2="hardAlpha" operator="arithmetic" k2="-1" k3="1"/>
<feColorMatrix type="matrix" values="0 0 0 0 0.758534 0 0 0 0 0.758534 0 0 0 0 0.758534 0 0 0 0.4 0"/>
<feBlend mode="normal" in2="shape" result="effect2_innerShadow_8601_30257"/>
<feColorMatrix in="SourceAlpha" type="matrix" values="0 0 0 0 0 0 0 0 0 0 0 0 0 0 0 0 0 0 127 0" result="hardAlpha"/>
<feOffset dx="-96.1539" dy="-76.9232"/>
<feGaussianBlur stdDeviation="25.6411"/>
<feComposite in2="hardAlpha" operator="arithmetic" k2="-1" k3="1"/>
<feColorMatrix type="matrix" values="0 0 0 0 0.187683 0 0 0 0 0.187683 0 0 0 0 0.187683 0 0 0 0.8 0"/>
<feBlend mode="normal" in2="effect2_innerShadow_8601_30257" result="effect3_innerShadow_8601_30257"/>
<feColorMatrix in="SourceAlpha" type="matrix" values="0 0 0 0 0 0 0 0 0 0 0 0 0 0 0 0 0 0 127 0" result="hardAlpha"/>
<feOffset dx="14.3871" dy="10.0718"/>
<feGaussianBlur stdDeviation="25.9539"/>
<feComposite in2="hardAlpha" operator="arithmetic" k2="-1" k3="1"/>
<feColorMatrix type="matrix" values="0 0 0 0 1 0 0 0 0 1 0 0 0 0 1 0 0 0 0.9 0"/>
<feBlend mode="normal" in2="effect3_innerShadow_8601_30257" result="effect4_innerShadow_8601_30257"/>
<feColorMatrix in="SourceAlpha" type="matrix" values="0 0 0 0 0 0 0 0 0 0 0 0 0 0 0 0 0 0 127 0" result="hardAlpha"/>
<feOffset dx="28.7742" dy="-23.0194"/>
<feGaussianBlur stdDeviation="21.5807"/>
<feComposite in2="hardAlpha" operator="arithmetic" k2="-1" k3="1"/>
<feColorMatrix type="matrix" values="0 0 0 0 1 0 0 0 0 1 0 0 0 0 1 0 0 0 0.8 0"/>
<feBlend mode="normal" in2="effect4_innerShadow_8601_30257" result="effect5_innerShadow_8601_30257"/>
<feColorMatrix in="SourceAlpha" type="matrix" values="0 0 0 0 0 0 0 0 0 0 0 0 0 0 0 0 0 0 127 0" result="hardAlpha"/>
<feOffset dx="-251.774" dy="40.2871"/>
<feGaussianBlur stdDeviation="125.897"/>
<feComposite in2="hardAlpha" operator="arithmetic" k2="-1" k3="1"/>
<feColorMatrix type="matrix" values="0 0 0 0 0.812683 0 0 0 0 0.806834 0 0 0 0 0.806834 0 0 0 1 0"/>
<feBlend mode="normal" in2="effect5_innerShadow_8601_30257" result="effect6_innerShadow_8601_30257"/>
</filter>
<filter id="filter2_diiiii_8601_30257" x="444.973" y="-114.6" width="663.984" height="1538.46" filterUnits="userSpaceOnUse" color-interpolation-filters="sRGB">
<feFlood flood-opacity="0" result="BackgroundImageFix"/>
<feColorMatrix in="SourceAlpha" type="matrix" values="0 0 0 0 0 0 0 0 0 0 0 0 0 0 0 0 0 0 127 0" result="hardAlpha"/>
<feOffset dx="107.903" dy="-107.903"/>
<feGaussianBlur stdDeviation="86.3227"/>
<feComposite in2="hardAlpha" operator="out"/>
<feColorMatrix type="matrix" values="0 0 0 0 0 0 0 0 0 0 0 0 0 0 0 0 0 0 0.3 0"/>
<feBlend mode="normal" in2="BackgroundImageFix" result="effect1_dropShadow_8601_30257"/>
<feBlend mode="normal" in="SourceGraphic" in2="effect1_dropShadow_8601_30257" result="shape"/>
<feColorMatrix in="SourceAlpha" type="matrix" values="0 0 0 0 0 0 0 0 0 0 0 0 0 0 0 0 0 0 127 0" result="hardAlpha"/>
<feOffset dy="102.564"/>
<feGaussianBlur stdDeviation="48.077"/>
<feComposite in2="hardAlpha" operator="arithmetic" k2="-1" k3="1"/>
<feColorMatrix type="matrix" values="0 0 0 0 0.625183 0 0 0 0 0.625183 0 0 0 0 0.625183 0 0 0 1 0"/>
<feBlend mode="normal" in2="shape" result="effect2_innerShadow_8601_30257"/>
<feColorMatrix in="SourceAlpha" type="matrix" values="0 0 0 0 0 0 0 0 0 0 0 0 0 0 0 0 0 0 127 0" result="hardAlpha"/>
<feOffset dx="-96.1539" dy="-76.9232"/>
<feGaussianBlur stdDeviation="25.6411"/>
<feComposite in2="hardAlpha" operator="arithmetic" k2="-1" k3="1"/>
<feColorMatrix type="matrix" values="0 0 0 0 0.42935 0 0 0 0 0.42935 0 0 0 0 0.42935 0 0 0 0.8 0"/>
<feBlend mode="normal" in2="effect2_innerShadow_8601_30257" result="effect3_innerShadow_8601_30257"/>
<feColorMatrix in="SourceAlpha" type="matrix" values="0 0 0 0 0 0 0 0 0 0 0 0 0 0 0 0 0 0 127 0" result="hardAlpha"/>
<feOffset dx="14.3871" dy="10.0718"/>
<feGaussianBlur stdDeviation="25.9539"/>
<feComposite in2="hardAlpha" operator="arithmetic" k2="-1" k3="1"/>
<feColorMatrix type="matrix" values="0 0 0 0 1 0 0 0 0 1 0 0 0 0 1 0 0 0 0.9 0"/>
<feBlend mode="normal" in2="effect3_innerShadow_8601_30257" result="effect4_innerShadow_8601_30257"/>
<feColorMatrix in="SourceAlpha" type="matrix" values="0 0 0 0 0 0 0 0 0 0 0 0 0 0 0 0 0 0 127 0" result="hardAlpha"/>
<feOffset dx="83" dy="-70"/>
<feGaussianBlur stdDeviation="21.5807"/>
<feComposite in2="hardAlpha" operator="arithmetic" k2="-1" k3="1"/>
<feColorMatrix type="matrix" values="0 0 0 0 1 0 0 0 0 1 0 0 0 0 1 0 0 0 1 0"/>
<feBlend mode="normal" in2="effect4_innerShadow_8601_30257" result="effect5_innerShadow_8601_30257"/>
<feColorMatrix in="SourceAlpha" type="matrix" values="0 0 0 0 0 0 0 0 0 0 0 0 0 0 0 0 0 0 127 0" result="hardAlpha"/>
<feOffset dx="-201.435" dy="40.2871"/>
<feGaussianBlur stdDeviation="125.897"/>
<feComposite in2="hardAlpha" operator="arithmetic" k2="-1" k3="1"/>
<feColorMatrix type="matrix" values="0 0 0 0 0.721017 0 0 0 0 0.721017 0 0 0 0 0.721017 0 0 0 1 0"/>
<feBlend mode="normal" in2="effect5_innerShadow_8601_30257" result="effect6_innerShadow_8601_30257"/>
</filter>
<linearGradient id="paint0_linear_8601_30257" x1="752" y1="216" x2="763" y2="1196" gradientUnits="userSpaceOnUse">
<stop offset="0.131294" stop-color="#898989"/>
<stop offset="0.514205" stop-color="white"/>
<stop offset="0.908793" stop-color="#585858"/>
</linearGradient>
<linearGradient id="paint1_linear_8601_30257" x1="719.001" y1="1384" x2="736.97" y2="135.566" gradientUnits="userSpaceOnUse">
<stop offset="0.198285" stop-color="#9A9A9A"/>
<stop offset="0.467329" stop-color="#A6A6A6"/>
<stop offset="0.744456" stop-color="#9A9A9A"/>
</linearGradient>
<clipPath id="clip0_8601_30257">
<rect width="1500" height="1500" rx="41.6667" fill="white"/>
</clipPath>
</defs>
</svg>
