<svg width="1500" height="1500" viewBox="0 0 1500 1500" fill="none" xmlns="http://www.w3.org/2000/svg" xmlns:xlink="http://www.w3.org/1999/xlink">
<g clip-path="url(#clip0_8601_30332)">
<rect width="1500" height="1500" rx="41.6667" fill="#1A1A21"/>
<rect opacity="0.5" x="-73" y="-168" width="1742" height="1742" fill="url(#pattern0)" fill-opacity="0.5"/>
<text x="75" y="1350" font-family="'Andale Mono', monospace" font-size="40px" fill="white">ID 5903</text>
<text x="75" y="1425" font-family="'Andale Mono', monospace" font-size="40px" fill="white">14738431</text>
<g filter="url(#filter0_iiii_8601_30332)">
<path fill-rule="evenodd" clip-rule="evenodd" d="M1069.24 1179.65C1046.58 1218.56 1004.95 1242.5 959.921 1242.5L527.106 1242.5C481 1242.5 438.545 1217.41 416.301 1177.03L215.958 813.281C195.139 775.481 195.025 729.675 215.658 691.772L416.115 323.52C438.265 282.828 480.889 257.5 527.22 257.5L959.806 257.5C1005.06 257.5 1046.87 281.679 1069.45 320.906L1281.36 689.154C1303.95 728.414 1303.83 776.756 1281.03 815.9L1069.24 1179.65ZM926.289 1057.5L1104.12 752.076L925.975 442.5L561.981 442.5L393.459 752.087L561.672 1057.5L926.289 1057.5Z" fill="#A5A5A5"/>
</g>
<path d="M1311 1360V1417.11C1311 1428.1 1330.25 1437 1354 1437C1377.75 1437 1397 1428.1 1397 1417.11V1360" stroke="white" stroke-width="4" stroke-linecap="round" stroke-linejoin="round"/>
<path d="M1413 1338.31C1413 1341.44 1411.59 1344.56 1408.75 1347.57C1405.9 1350.59 1401.68 1353.4 1396.32 1355.8C1385.59 1360.6 1370.63 1363.63 1354 1363.63V1367.63C1371.06 1367.63 1386.6 1364.53 1397.95 1359.45C1403.62 1356.91 1408.34 1353.84 1411.66 1350.32C1414.99 1346.79 1417 1342.73 1417 1338.31H1413ZM1354 1363.63C1337.37 1363.63 1322.41 1360.6 1311.68 1355.8C1306.32 1353.4 1302.1 1350.59 1299.25 1347.57C1296.41 1344.56 1295 1341.44 1295 1338.31H1291C1291 1342.73 1293.01 1346.79 1296.34 1350.32C1299.66 1353.84 1304.38 1356.91 1310.05 1359.45C1321.4 1364.53 1336.94 1367.63 1354 1367.63V1363.63ZM1295 1338.31C1295 1335.19 1296.41 1332.06 1299.25 1329.06C1302.1 1326.04 1306.32 1323.23 1311.68 1320.83C1322.41 1316.02 1337.37 1313 1354 1313V1309C1336.94 1309 1321.4 1312.09 1310.05 1317.17C1304.38 1319.71 1299.66 1322.79 1296.34 1326.31C1293.01 1329.84 1291 1333.9 1291 1338.31H1295ZM1354 1313C1370.63 1313 1385.59 1316.02 1396.32 1320.83C1401.68 1323.23 1405.9 1326.04 1408.75 1329.06C1411.59 1332.06 1413 1335.19 1413 1338.31H1417C1417 1333.9 1414.99 1329.84 1411.66 1326.31C1408.34 1322.79 1403.62 1319.71 1397.95 1317.17C1386.6 1312.09 1371.06 1309 1354 1309V1313Z" fill="white"/>
<path d="M1289 1272C1293.34 1305.48 1316.16 1335.3 1352 1342C1347.66 1315.22 1329.19 1272 1289 1272Z" stroke="white" stroke-width="4" stroke-linecap="round" stroke-linejoin="round"/>
<path d="M1418 1272C1413.66 1305.48 1390.84 1335.3 1355 1342C1359.34 1315.22 1377.81 1272 1418 1272Z" stroke="white" stroke-width="4" stroke-linecap="round" stroke-linejoin="round"/>
</g>
<defs>
<pattern id="pattern0" patternContentUnits="objectBoundingBox" width="1" height="1">
<use xlink:href="#image0_8601_30332" transform="scale(0.000893655)"/>
</pattern>
<filter id="filter0_iiii_8601_30332" x="-41.948" y="229.821" width="1350.16" height="1128.3" filterUnits="userSpaceOnUse" color-interpolation-filters="sRGB">
<feFlood flood-opacity="0" result="BackgroundImageFix"/>
<feBlend mode="normal" in="SourceGraphic" in2="BackgroundImageFix" result="shape"/>
<feColorMatrix in="SourceAlpha" type="matrix" values="0 0 0 0 0 0 0 0 0 0 0 0 0 0 0 0 0 0 127 0" result="hardAlpha"/>
<feOffset dy="123.326"/>
<feGaussianBlur stdDeviation="57.8089"/>
<feComposite in2="hardAlpha" operator="arithmetic" k2="-1" k3="1"/>
<feColorMatrix type="matrix" values="0 0 0 0 0.400183 0 0 0 0 0.400183 0 0 0 0 0.400183 0 0 0 0.7 0"/>
<feBlend mode="normal" in2="shape" result="effect1_innerShadow_8601_30332"/>
<feColorMatrix in="SourceAlpha" type="matrix" values="0 0 0 0 0 0 0 0 0 0 0 0 0 0 0 0 0 0 127 0" result="hardAlpha"/>
<feOffset dx="10" dy="91"/>
<feGaussianBlur stdDeviation="31.2076"/>
<feComposite in2="hardAlpha" operator="arithmetic" k2="-1" k3="1"/>
<feColorMatrix type="matrix" values="0 0 0 0 1 0 0 0 0 1 0 0 0 0 1 0 0 0 0.5 0"/>
<feBlend mode="normal" in2="effect1_innerShadow_8601_30332" result="effect2_innerShadow_8601_30332"/>
<feColorMatrix in="SourceAlpha" type="matrix" values="0 0 0 0 0 0 0 0 0 0 0 0 0 0 0 0 0 0 127 0" result="hardAlpha"/>
<feOffset dx="-59.5869" dy="-27.6791"/>
<feGaussianBlur stdDeviation="25.9491"/>
<feComposite in2="hardAlpha" operator="arithmetic" k2="-1" k3="1"/>
<feColorMatrix type="matrix" values="0 0 0 0 1 0 0 0 0 1 0 0 0 0 1 0 0 0 0.5 0"/>
<feBlend mode="normal" in2="effect2_innerShadow_8601_30332" result="effect3_innerShadow_8601_30332"/>
<feColorMatrix in="SourceAlpha" type="matrix" values="0 0 0 0 0 0 0 0 0 0 0 0 0 0 0 0 0 0 127 0" result="hardAlpha"/>
<feOffset dx="-242.211" dy="48.4421"/>
<feGaussianBlur stdDeviation="151.382"/>
<feComposite in2="hardAlpha" operator="arithmetic" k2="-1" k3="1"/>
<feColorMatrix type="matrix" values="0 0 0 0 1 0 0 0 0 1 0 0 0 0 1 0 0 0 0.35 0"/>
<feBlend mode="normal" in2="effect3_innerShadow_8601_30332" result="effect4_innerShadow_8601_30332"/>
</filter>
<clipPath id="clip0_8601_30332">
<rect width="1500" height="1500" rx="41.6667" fill="white"/>
</clipPath>
</defs>
</svg>
